<svg width="311" height="118" viewBox="0 0 311 118" fill="none" xmlns="http://www.w3.org/2000/svg">
<rect width="311" height="118" rx="20" fill="#54BE96"/>
<rect x="32" y="32" width="54" height="54" rx="13" fill="#FBFBFB"/>
<path d="M103.233 46V35.8182H109.378V36.9119H104.466V40.3523H109.06V41.446H104.466V44.9062H109.457V46H103.233ZM112.316 38.3636L114.146 41.4858L115.975 38.3636H117.327L114.862 42.1818L117.327 46H115.975L114.146 43.0369L112.316 46H110.964L113.39 42.1818L110.964 38.3636H112.316ZM119.002 48.8636V38.3636H120.135V39.5767H120.274C120.36 39.4441 120.48 39.2751 120.632 39.0696C120.788 38.8608 121.01 38.6752 121.298 38.5128C121.59 38.3471 121.985 38.2642 122.482 38.2642C123.125 38.2642 123.691 38.425 124.182 38.7464C124.673 39.0679 125.055 39.5237 125.33 40.1136C125.606 40.7036 125.743 41.3996 125.743 42.2017C125.743 43.0104 125.606 43.7114 125.33 44.3047C125.055 44.8946 124.674 45.352 124.187 45.6768C123.7 45.9983 123.138 46.1591 122.502 46.1591C122.011 46.1591 121.618 46.0779 121.323 45.9155C121.028 45.7498 120.801 45.5625 120.642 45.3537C120.483 45.1416 120.36 44.9659 120.274 44.8267H120.175V48.8636H119.002ZM120.155 42.1818C120.155 42.7585 120.24 43.2673 120.409 43.7081C120.578 44.1456 120.825 44.4886 121.149 44.7372C121.474 44.9825 121.872 45.1051 122.343 45.1051C122.833 45.1051 123.242 44.9759 123.57 44.7173C123.902 44.4555 124.151 44.1042 124.316 43.6634C124.485 43.2192 124.57 42.7254 124.57 42.1818C124.57 41.6449 124.487 41.161 124.321 40.7301C124.159 40.2959 123.912 39.9529 123.58 39.701C123.252 39.4458 122.84 39.3182 122.343 39.3182C121.865 39.3182 121.464 39.4392 121.139 39.6811C120.815 39.9197 120.569 40.2545 120.404 40.6854C120.238 41.1129 120.155 41.6117 120.155 42.1818ZM130.735 46.1591C129.999 46.1591 129.364 45.9967 128.83 45.6719C128.3 45.3438 127.891 44.8864 127.602 44.2997C127.317 43.7098 127.175 43.0237 127.175 42.2415C127.175 41.4593 127.317 40.7699 127.602 40.1733C127.891 39.5734 128.292 39.1061 128.806 38.7713C129.323 38.4332 129.926 38.2642 130.615 38.2642C131.013 38.2642 131.406 38.3305 131.794 38.4631C132.181 38.5956 132.534 38.8111 132.852 39.1094C133.171 39.4044 133.424 39.7955 133.613 40.2827C133.802 40.7699 133.896 41.3698 133.896 42.0824V42.5795H128.01V41.5653H132.703C132.703 41.1345 132.617 40.75 132.445 40.4119C132.276 40.0739 132.034 39.8071 131.719 39.6115C131.407 39.416 131.039 39.3182 130.615 39.3182C130.148 39.3182 129.744 39.4342 129.402 39.6662C129.064 39.8949 128.804 40.1932 128.622 40.5611C128.439 40.929 128.348 41.3234 128.348 41.7443V42.4205C128.348 42.9972 128.448 43.486 128.646 43.8871C128.849 44.2848 129.129 44.5881 129.487 44.7969C129.845 45.0024 130.261 45.1051 130.735 45.1051C131.043 45.1051 131.321 45.062 131.57 44.9759C131.822 44.8864 132.039 44.7538 132.221 44.5781C132.403 44.3991 132.544 44.1771 132.644 43.9119L133.777 44.2301C133.658 44.6146 133.457 44.9527 133.176 45.2443C132.894 45.5327 132.546 45.758 132.132 45.9205C131.717 46.0795 131.252 46.1591 130.735 46.1591ZM135.681 46V38.3636H136.815V39.517H136.894C137.034 39.1392 137.285 38.8326 137.65 38.5973C138.015 38.362 138.426 38.2443 138.883 38.2443C138.969 38.2443 139.077 38.246 139.206 38.2493C139.335 38.2526 139.433 38.2576 139.499 38.2642V39.4574C139.46 39.4474 139.369 39.4325 139.226 39.4126C139.087 39.3894 138.939 39.3778 138.784 39.3778C138.412 39.3778 138.081 39.4557 137.789 39.6115C137.501 39.764 137.272 39.9761 137.103 40.2479C136.937 40.5163 136.855 40.8229 136.855 41.1676V46H135.681ZM140.89 46V38.3636H142.064V46H140.89ZM141.487 37.0909C141.258 37.0909 141.061 37.013 140.895 36.8572C140.733 36.7015 140.652 36.5142 140.652 36.2955C140.652 36.0767 140.733 35.8894 140.895 35.7337C141.061 35.5779 141.258 35.5 141.487 35.5C141.716 35.5 141.911 35.5779 142.074 35.7337C142.239 35.8894 142.322 36.0767 142.322 36.2955C142.322 36.5142 142.239 36.7015 142.074 36.8572C141.911 37.013 141.716 37.0909 141.487 37.0909ZM147.414 46.1591C146.678 46.1591 146.044 45.9967 145.51 45.6719C144.98 45.3438 144.57 44.8864 144.282 44.2997C143.997 43.7098 143.855 43.0237 143.855 42.2415C143.855 41.4593 143.997 40.7699 144.282 40.1733C144.57 39.5734 144.972 39.1061 145.485 38.7713C146.002 38.4332 146.606 38.2642 147.295 38.2642C147.693 38.2642 148.085 38.3305 148.473 38.4631C148.861 38.5956 149.214 38.8111 149.532 39.1094C149.85 39.4044 150.104 39.7955 150.293 40.2827C150.482 40.7699 150.576 41.3698 150.576 42.0824V42.5795H144.69V41.5653H149.383C149.383 41.1345 149.297 40.75 149.124 40.4119C148.955 40.0739 148.713 39.8071 148.399 39.6115C148.087 39.416 147.719 39.3182 147.295 39.3182C146.828 39.3182 146.423 39.4342 146.082 39.6662C145.744 39.8949 145.484 40.1932 145.301 40.5611C145.119 40.929 145.028 41.3234 145.028 41.7443V42.4205C145.028 42.9972 145.127 43.486 145.326 43.8871C145.528 44.2848 145.808 44.5881 146.166 44.7969C146.524 45.0024 146.94 45.1051 147.414 45.1051C147.722 45.1051 148.001 45.062 148.249 44.9759C148.501 44.8864 148.718 44.7538 148.901 44.5781C149.083 44.3991 149.224 44.1771 149.323 43.9119L150.457 44.2301C150.338 44.6146 150.137 44.9527 149.855 45.2443C149.574 45.5327 149.226 45.758 148.811 45.9205C148.397 46.0795 147.931 46.1591 147.414 46.1591ZM153.534 41.4062V46H152.361V38.3636H153.494V39.5568H153.594C153.773 39.169 154.045 38.8575 154.409 38.6222C154.774 38.3835 155.244 38.2642 155.821 38.2642C156.338 38.2642 156.791 38.3703 157.178 38.5824C157.566 38.7912 157.868 39.1094 158.083 39.5369C158.299 39.9612 158.406 40.4981 158.406 41.1477V46H157.233V41.2273C157.233 40.6274 157.077 40.16 156.766 39.8253C156.454 39.4872 156.027 39.3182 155.483 39.3182C155.109 39.3182 154.774 39.3994 154.479 39.5618C154.187 39.7242 153.957 39.9612 153.788 40.2727C153.619 40.5843 153.534 40.9621 153.534 41.4062ZM163.653 46.1591C162.937 46.1591 162.32 45.9901 161.803 45.652C161.286 45.3139 160.888 44.8482 160.61 44.255C160.332 43.6617 160.192 42.9839 160.192 42.2216C160.192 41.446 160.335 40.7616 160.62 40.1683C160.908 39.5717 161.309 39.1061 161.823 38.7713C162.34 38.4332 162.943 38.2642 163.633 38.2642C164.17 38.2642 164.654 38.3636 165.085 38.5625C165.515 38.7614 165.868 39.0398 166.143 39.3977C166.419 39.7557 166.589 40.1733 166.656 40.6506H165.482C165.393 40.3026 165.194 39.9943 164.886 39.7259C164.581 39.4541 164.17 39.3182 163.653 39.3182C163.195 39.3182 162.794 39.4375 162.45 39.6761C162.108 39.9115 161.841 40.2446 161.649 40.6754C161.46 41.103 161.366 41.6051 161.366 42.1818C161.366 42.7718 161.459 43.2855 161.644 43.723C161.833 44.1605 162.098 44.5002 162.44 44.7422C162.784 44.9841 163.189 45.1051 163.653 45.1051C163.958 45.1051 164.234 45.0521 164.483 44.946C164.732 44.84 164.942 44.6875 165.114 44.4886C165.287 44.2898 165.409 44.0511 165.482 43.7727H166.656C166.589 44.2235 166.425 44.6295 166.163 44.9908C165.905 45.3487 165.562 45.6338 165.134 45.8459C164.71 46.0547 164.216 46.1591 163.653 46.1591ZM171.572 46.1591C170.837 46.1591 170.202 45.9967 169.668 45.6719C169.138 45.3438 168.729 44.8864 168.44 44.2997C168.155 43.7098 168.013 43.0237 168.013 42.2415C168.013 41.4593 168.155 40.7699 168.44 40.1733C168.729 39.5734 169.13 39.1061 169.643 38.7713C170.161 38.4332 170.764 38.2642 171.453 38.2642C171.851 38.2642 172.244 38.3305 172.631 38.4631C173.019 38.5956 173.372 38.8111 173.69 39.1094C174.009 39.4044 174.262 39.7955 174.451 40.2827C174.64 40.7699 174.734 41.3698 174.734 42.0824V42.5795H168.848V41.5653H173.541C173.541 41.1345 173.455 40.75 173.283 40.4119C173.114 40.0739 172.872 39.8071 172.557 39.6115C172.245 39.416 171.877 39.3182 171.453 39.3182C170.986 39.3182 170.581 39.4342 170.24 39.6662C169.902 39.8949 169.642 40.1932 169.46 40.5611C169.277 40.929 169.186 41.3234 169.186 41.7443V42.4205C169.186 42.9972 169.286 43.486 169.484 43.8871C169.687 44.2848 169.967 44.5881 170.325 44.7969C170.683 45.0024 171.098 45.1051 171.572 45.1051C171.881 45.1051 172.159 45.062 172.408 44.9759C172.66 44.8864 172.877 44.7538 173.059 44.5781C173.241 44.3991 173.382 44.1771 173.482 43.9119L174.615 44.2301C174.496 44.6146 174.295 44.9527 174.013 45.2443C173.732 45.5327 173.384 45.758 172.969 45.9205C172.555 46.0795 172.089 46.1591 171.572 46.1591ZM179.403 46.1591C178.766 46.1591 178.205 45.9983 177.717 45.6768C177.23 45.352 176.849 44.8946 176.574 44.3047C176.299 43.7114 176.161 43.0104 176.161 42.2017C176.161 41.3996 176.299 40.7036 176.574 40.1136C176.849 39.5237 177.232 39.0679 177.722 38.7464C178.213 38.425 178.78 38.2642 179.423 38.2642C179.92 38.2642 180.313 38.3471 180.601 38.5128C180.893 38.6752 181.115 38.8608 181.267 39.0696C181.423 39.2751 181.544 39.4441 181.63 39.5767H181.729V35.8182H182.903V46H181.769V44.8267H181.63C181.544 44.9659 181.421 45.1416 181.262 45.3537C181.103 45.5625 180.876 45.7498 180.581 45.9155C180.286 46.0779 179.893 46.1591 179.403 46.1591ZM179.562 45.1051C180.032 45.1051 180.43 44.9825 180.755 44.7372C181.08 44.4886 181.327 44.1456 181.496 43.7081C181.665 43.2673 181.749 42.7585 181.749 42.1818C181.749 41.6117 181.666 41.1129 181.501 40.6854C181.335 40.2545 181.09 39.9197 180.765 39.6811C180.44 39.4392 180.039 39.3182 179.562 39.3182C179.065 39.3182 178.65 39.4458 178.319 39.701C177.991 39.9529 177.744 40.2959 177.578 40.7301C177.416 41.161 177.335 41.6449 177.335 42.1818C177.335 42.7254 177.417 43.2192 177.583 43.6634C177.752 44.1042 178.001 44.4555 178.329 44.7173C178.66 44.9759 179.071 45.1051 179.562 45.1051ZM189.152 48.8636V38.3636H190.286V39.5767H190.425C190.511 39.4441 190.63 39.2751 190.783 39.0696C190.938 38.8608 191.161 38.6752 191.449 38.5128C191.741 38.3471 192.135 38.2642 192.632 38.2642C193.275 38.2642 193.842 38.425 194.332 38.7464C194.823 39.0679 195.206 39.5237 195.481 40.1136C195.756 40.7036 195.893 41.3996 195.893 42.2017C195.893 43.0104 195.756 43.7114 195.481 44.3047C195.206 44.8946 194.825 45.352 194.337 45.6768C193.85 45.9983 193.288 46.1591 192.652 46.1591C192.161 46.1591 191.769 46.0779 191.474 45.9155C191.179 45.7498 190.952 45.5625 190.793 45.3537C190.634 45.1416 190.511 44.9659 190.425 44.8267H190.325V48.8636H189.152ZM190.305 42.1818C190.305 42.7585 190.39 43.2673 190.559 43.7081C190.728 44.1456 190.975 44.4886 191.3 44.7372C191.625 44.9825 192.022 45.1051 192.493 45.1051C192.983 45.1051 193.393 44.9759 193.721 44.7173C194.052 44.4555 194.301 44.1042 194.467 43.6634C194.636 43.2192 194.72 42.7254 194.72 42.1818C194.72 41.6449 194.637 41.161 194.472 40.7301C194.309 40.2959 194.062 39.9529 193.731 39.701C193.403 39.4458 192.99 39.3182 192.493 39.3182C192.016 39.3182 191.615 39.4392 191.29 39.6811C190.965 39.9197 190.72 40.2545 190.554 40.6854C190.388 41.1129 190.305 41.6117 190.305 42.1818ZM203.092 40.0739L202.038 40.3722C201.972 40.1965 201.874 40.0258 201.745 39.8601C201.619 39.6911 201.447 39.5518 201.228 39.4425C201.009 39.3331 200.729 39.2784 200.388 39.2784C199.92 39.2784 199.531 39.3861 199.219 39.6016C198.911 39.8137 198.757 40.0838 198.757 40.4119C198.757 40.7036 198.863 40.9339 199.075 41.103C199.287 41.272 199.619 41.4129 200.07 41.5256L201.203 41.804C201.886 41.9697 202.395 42.2232 202.729 42.5646C203.064 42.9027 203.232 43.3385 203.232 43.8722C203.232 44.3097 203.106 44.7008 202.854 45.0455C202.605 45.3902 202.257 45.6619 201.81 45.8608C201.362 46.0597 200.842 46.1591 200.249 46.1591C199.47 46.1591 198.825 45.9901 198.315 45.652C197.804 45.3139 197.481 44.8201 197.345 44.1705L198.459 43.892C198.565 44.303 198.765 44.6113 199.06 44.8168C199.359 45.0223 199.748 45.125 200.229 45.125C200.776 45.125 201.21 45.009 201.531 44.777C201.856 44.5417 202.018 44.2599 202.018 43.9318C202.018 43.6667 201.926 43.4446 201.74 43.2656C201.554 43.0833 201.269 42.9474 200.885 42.858L199.612 42.5597C198.913 42.3939 198.399 42.1371 198.071 41.7891C197.746 41.4377 197.584 40.9986 197.584 40.4716C197.584 40.0407 197.705 39.6596 197.947 39.3281C198.192 38.9967 198.525 38.7365 198.946 38.5476C199.37 38.3587 199.851 38.2642 200.388 38.2642C201.143 38.2642 201.737 38.4299 202.168 38.7614C202.602 39.0928 202.91 39.5303 203.092 40.0739ZM205.753 48.8636C205.555 48.8636 205.377 48.8471 205.221 48.8139C205.066 48.7841 204.958 48.7543 204.898 48.7244L205.197 47.6903C205.482 47.7633 205.733 47.7898 205.952 47.7699C206.171 47.75 206.365 47.6522 206.534 47.4766C206.706 47.3042 206.864 47.0241 207.006 46.6364L207.225 46.0398L204.401 38.3636H205.674L207.782 44.4489H207.861L209.969 38.3636H211.242L208.001 47.1136C207.855 47.508 207.674 47.8345 207.459 48.093C207.243 48.3549 206.993 48.5488 206.708 48.6747C206.426 48.8007 206.108 48.8636 205.753 48.8636ZM215.619 46.1591C214.904 46.1591 214.287 45.9901 213.77 45.652C213.253 45.3139 212.855 44.8482 212.577 44.255C212.298 43.6617 212.159 42.9839 212.159 42.2216C212.159 41.446 212.302 40.7616 212.587 40.1683C212.875 39.5717 213.276 39.1061 213.79 38.7713C214.307 38.4332 214.91 38.2642 215.6 38.2642C216.137 38.2642 216.62 38.3636 217.051 38.5625C217.482 38.7614 217.835 39.0398 218.11 39.3977C218.385 39.7557 218.556 40.1733 218.622 40.6506H217.449C217.36 40.3026 217.161 39.9943 216.852 39.7259C216.548 39.4541 216.137 39.3182 215.619 39.3182C215.162 39.3182 214.761 39.4375 214.416 39.6761C214.075 39.9115 213.808 40.2446 213.616 40.6754C213.427 41.103 213.333 41.6051 213.333 42.1818C213.333 42.7718 213.425 43.2855 213.611 43.723C213.8 44.1605 214.065 44.5002 214.406 44.7422C214.751 44.9841 215.155 45.1051 215.619 45.1051C215.924 45.1051 216.201 45.0521 216.45 44.946C216.698 44.84 216.909 44.6875 217.081 44.4886C217.253 44.2898 217.376 44.0511 217.449 43.7727H218.622C218.556 44.2235 218.392 44.6295 218.13 44.9908C217.872 45.3487 217.529 45.6338 217.101 45.8459C216.677 46.0547 216.183 46.1591 215.619 46.1591ZM221.511 41.4062V46H220.338V35.8182H221.511V39.5568H221.61C221.789 39.1624 222.058 38.8492 222.416 38.6172C222.777 38.3819 223.258 38.2642 223.857 38.2642C224.378 38.2642 224.834 38.3686 225.225 38.5774C225.616 38.7829 225.919 39.0994 226.134 39.527C226.353 39.9512 226.463 40.4915 226.463 41.1477V46H225.289V41.2273C225.289 40.6207 225.132 40.1518 224.817 39.8203C224.505 39.4856 224.073 39.3182 223.519 39.3182C223.135 39.3182 222.79 39.3994 222.485 39.5618C222.184 39.7242 221.945 39.9612 221.769 40.2727C221.597 40.5843 221.511 40.9621 221.511 41.4062ZM231.711 46.1591C231.022 46.1591 230.417 45.995 229.897 45.6669C229.38 45.3388 228.975 44.8797 228.684 44.2898C228.395 43.6998 228.251 43.0104 228.251 42.2216C228.251 41.4261 228.395 40.7318 228.684 40.1385C228.975 39.5452 229.38 39.0845 229.897 38.7564C230.417 38.4283 231.022 38.2642 231.711 38.2642C232.401 38.2642 233.004 38.4283 233.521 38.7564C234.041 39.0845 234.446 39.5452 234.734 40.1385C235.026 40.7318 235.172 41.4261 235.172 42.2216C235.172 43.0104 235.026 43.6998 234.734 44.2898C234.446 44.8797 234.041 45.3388 233.521 45.6669C233.004 45.995 232.401 46.1591 231.711 46.1591ZM231.711 45.1051C232.235 45.1051 232.666 44.9709 233.004 44.7024C233.342 44.4339 233.592 44.081 233.755 43.6435C233.917 43.206 233.998 42.732 233.998 42.2216C233.998 41.7112 233.917 41.2356 233.755 40.7947C233.592 40.3539 233.342 39.9976 233.004 39.7259C232.666 39.4541 232.235 39.3182 231.711 39.3182C231.188 39.3182 230.757 39.4541 230.419 39.7259C230.081 39.9976 229.83 40.3539 229.668 40.7947C229.506 41.2356 229.424 41.7112 229.424 42.2216C229.424 42.732 229.506 43.206 229.668 43.6435C229.83 44.081 230.081 44.4339 230.419 44.7024C230.757 44.9709 231.188 45.1051 231.711 45.1051ZM238.136 35.8182V46H236.963V35.8182H238.136ZM243.387 46.1591C242.698 46.1591 242.093 45.995 241.572 45.6669C241.055 45.3388 240.651 44.8797 240.359 44.2898C240.071 43.6998 239.927 43.0104 239.927 42.2216C239.927 41.4261 240.071 40.7318 240.359 40.1385C240.651 39.5452 241.055 39.0845 241.572 38.7564C242.093 38.4283 242.698 38.2642 243.387 38.2642C244.076 38.2642 244.68 38.4283 245.197 38.7564C245.717 39.0845 246.121 39.5452 246.41 40.1385C246.701 40.7318 246.847 41.4261 246.847 42.2216C246.847 43.0104 246.701 43.6998 246.41 44.2898C246.121 44.8797 245.717 45.3388 245.197 45.6669C244.68 45.995 244.076 46.1591 243.387 46.1591ZM243.387 45.1051C243.911 45.1051 244.342 44.9709 244.68 44.7024C245.018 44.4339 245.268 44.081 245.43 43.6435C245.593 43.206 245.674 42.732 245.674 42.2216C245.674 41.7112 245.593 41.2356 245.43 40.7947C245.268 40.3539 245.018 39.9976 244.68 39.7259C244.342 39.4541 243.911 39.3182 243.387 39.3182C242.863 39.3182 242.433 39.4541 242.094 39.7259C241.756 39.9976 241.506 40.3539 241.344 40.7947C241.181 41.2356 241.1 41.7112 241.1 42.2216C241.1 42.732 241.181 43.206 241.344 43.6435C241.506 44.081 241.756 44.4339 242.094 44.7024C242.433 44.9709 242.863 45.1051 243.387 45.1051ZM251.721 49.0227C251.154 49.0227 250.667 48.9498 250.259 48.804C249.851 48.6615 249.512 48.4725 249.24 48.2372C248.971 48.0052 248.758 47.7566 248.599 47.4915L249.533 46.8352C249.639 46.9744 249.773 47.1335 249.936 47.3125C250.098 47.4948 250.32 47.6522 250.602 47.7848C250.887 47.9207 251.26 47.9886 251.721 47.9886C252.337 47.9886 252.846 47.8395 253.247 47.5412C253.648 47.2429 253.849 46.7756 253.849 46.1392V44.5881H253.749C253.663 44.7273 253.54 44.8996 253.381 45.1051C253.225 45.3073 253 45.4879 252.705 45.647C252.413 45.8028 252.019 45.8807 251.522 45.8807C250.905 45.8807 250.352 45.7348 249.861 45.4432C249.374 45.1515 248.988 44.7273 248.703 44.1705C248.421 43.6136 248.28 42.9375 248.28 42.142C248.28 41.3598 248.418 40.6787 248.693 40.0987C248.968 39.5154 249.351 39.0646 249.841 38.7464C250.332 38.425 250.899 38.2642 251.542 38.2642C252.039 38.2642 252.433 38.3471 252.725 38.5128C253.02 38.6752 253.245 38.8608 253.401 39.0696C253.56 39.2751 253.683 39.4441 253.769 39.5767H253.888V38.3636H255.022V46.2188C255.022 46.875 254.873 47.4086 254.574 47.8196C254.279 48.2339 253.882 48.5372 253.381 48.7294C252.884 48.925 252.331 49.0227 251.721 49.0227ZM251.681 44.8267C252.152 44.8267 252.549 44.719 252.874 44.5036C253.199 44.2881 253.446 43.9782 253.615 43.5739C253.784 43.1695 253.868 42.6856 253.868 42.1222C253.868 41.572 253.786 41.0864 253.62 40.6655C253.454 40.2446 253.209 39.9148 252.884 39.6761C252.559 39.4375 252.158 39.3182 251.681 39.3182C251.184 39.3182 250.769 39.4441 250.438 39.696C250.11 39.9479 249.863 40.286 249.697 40.7102C249.535 41.1345 249.454 41.6051 249.454 42.1222C249.454 42.6525 249.537 43.1214 249.702 43.5291C249.871 43.9335 250.12 44.2517 250.448 44.4837C250.779 44.7124 251.19 44.8267 251.681 44.8267ZM257.17 46V38.3636H258.343V46H257.17ZM257.766 37.0909C257.537 37.0909 257.34 37.013 257.175 36.8572C257.012 36.7015 256.931 36.5142 256.931 36.2955C256.931 36.0767 257.012 35.8894 257.175 35.7337C257.34 35.5779 257.537 35.5 257.766 35.5C257.995 35.5 258.19 35.5779 258.353 35.7337C258.519 35.8894 258.601 36.0767 258.601 36.2955C258.601 36.5142 258.519 36.7015 258.353 36.8572C258.19 37.013 257.995 37.0909 257.766 37.0909ZM265.901 40.0739L264.847 40.3722C264.781 40.1965 264.683 40.0258 264.554 39.8601C264.428 39.6911 264.255 39.5518 264.037 39.4425C263.818 39.3331 263.538 39.2784 263.196 39.2784C262.729 39.2784 262.34 39.3861 262.028 39.6016C261.72 39.8137 261.566 40.0838 261.566 40.4119C261.566 40.7036 261.672 40.9339 261.884 41.103C262.096 41.272 262.427 41.4129 262.878 41.5256L264.012 41.804C264.694 41.9697 265.203 42.2232 265.538 42.5646C265.873 42.9027 266.04 43.3385 266.04 43.8722C266.04 44.3097 265.914 44.7008 265.662 45.0455C265.414 45.3902 265.066 45.6619 264.618 45.8608C264.171 46.0597 263.65 46.1591 263.057 46.1591C262.278 46.1591 261.634 45.9901 261.123 45.652C260.613 45.3139 260.29 44.8201 260.154 44.1705L261.267 43.892C261.373 44.303 261.574 44.6113 261.869 44.8168C262.167 45.0223 262.557 45.125 263.037 45.125C263.584 45.125 264.018 45.009 264.34 44.777C264.665 44.5417 264.827 44.2599 264.827 43.9318C264.827 43.6667 264.734 43.4446 264.549 43.2656C264.363 43.0833 264.078 42.9474 263.694 42.858L262.421 42.5597C261.721 42.3939 261.208 42.1371 260.88 41.7891C260.555 41.4377 260.392 40.9986 260.392 40.4716C260.392 40.0407 260.513 39.6596 260.755 39.3281C261.001 38.9967 261.334 38.7365 261.755 38.5476C262.179 38.3587 262.659 38.2642 263.196 38.2642C263.952 38.2642 264.545 38.4299 264.976 38.7614C265.41 39.0928 265.719 39.5303 265.901 40.0739ZM271.127 38.3636V39.358H267.17V38.3636H271.127ZM268.323 36.5341H269.497V43.8125C269.497 44.1439 269.545 44.3925 269.641 44.5582C269.74 44.7206 269.866 44.83 270.019 44.8864C270.174 44.9394 270.338 44.9659 270.511 44.9659C270.64 44.9659 270.746 44.9593 270.829 44.946C270.912 44.9295 270.978 44.9162 271.028 44.9062L271.267 45.9602C271.187 45.9901 271.076 46.0199 270.933 46.0497C270.791 46.0829 270.61 46.0994 270.392 46.0994C270.06 46.0994 269.735 46.0282 269.417 45.8857C269.102 45.7431 268.84 45.526 268.632 45.2344C268.426 44.9427 268.323 44.5748 268.323 44.1307V36.5341ZM278.165 40.0739L277.111 40.3722C277.044 40.1965 276.947 40.0258 276.817 39.8601C276.691 39.6911 276.519 39.5518 276.3 39.4425C276.081 39.3331 275.801 39.2784 275.46 39.2784C274.993 39.2784 274.603 39.3861 274.292 39.6016C273.983 39.8137 273.829 40.0838 273.829 40.4119C273.829 40.7036 273.935 40.9339 274.148 41.103C274.36 41.272 274.691 41.4129 275.142 41.5256L276.275 41.804C276.958 41.9697 277.467 42.2232 277.802 42.5646C278.136 42.9027 278.304 43.3385 278.304 43.8722C278.304 44.3097 278.178 44.7008 277.926 45.0455C277.677 45.3902 277.329 45.6619 276.882 45.8608C276.434 46.0597 275.914 46.1591 275.321 46.1591C274.542 46.1591 273.897 45.9901 273.387 45.652C272.876 45.3139 272.553 44.8201 272.417 44.1705L273.531 43.892C273.637 44.303 273.838 44.6113 274.133 44.8168C274.431 45.0223 274.82 45.125 275.301 45.125C275.848 45.125 276.282 45.009 276.604 44.777C276.928 44.5417 277.091 44.2599 277.091 43.9318C277.091 43.6667 276.998 43.4446 276.812 43.2656C276.627 43.0833 276.342 42.9474 275.957 42.858L274.684 42.5597C273.985 42.3939 273.471 42.1371 273.143 41.7891C272.818 41.4377 272.656 40.9986 272.656 40.4716C272.656 40.0407 272.777 39.6596 273.019 39.3281C273.264 38.9967 273.597 38.7365 274.018 38.5476C274.443 38.3587 274.923 38.2642 275.46 38.2642C276.216 38.2642 276.809 38.4299 277.24 38.7614C277.674 39.0928 277.982 39.5303 278.165 40.0739Z" fill="#FBFBFB" fill-opacity="0.5"/>
<path d="M111.009 62.5455V80H107.318V66.0483H107.216L103.219 68.554V65.2812L107.54 62.5455H111.009ZM121.532 80.2386C120.327 80.2386 119.254 80.017 118.31 79.5739C117.373 79.1307 116.629 78.5199 116.077 77.7415C115.526 76.9631 115.239 76.071 115.217 75.0653H118.796C118.836 75.7415 119.12 76.2898 119.648 76.7102C120.177 77.1307 120.805 77.3409 121.532 77.3409C122.112 77.3409 122.623 77.2131 123.066 76.9574C123.515 76.696 123.864 76.3352 124.114 75.875C124.37 75.4091 124.498 74.875 124.498 74.2727C124.498 73.6591 124.367 73.1193 124.106 72.6534C123.85 72.1875 123.495 71.8239 123.04 71.5625C122.586 71.3011 122.066 71.1676 121.481 71.1619C120.969 71.1619 120.472 71.267 119.989 71.4773C119.512 71.6875 119.14 71.9744 118.873 72.3381L115.592 71.75L116.418 62.5455H127.089V65.5625H119.461L119.009 69.9347H119.112C119.418 69.5028 119.881 69.1449 120.501 68.8608C121.12 68.5767 121.813 68.4347 122.58 68.4347C123.631 68.4347 124.569 68.6818 125.393 69.1761C126.217 69.6705 126.867 70.3494 127.344 71.2131C127.822 72.071 128.058 73.0597 128.052 74.179C128.058 75.3551 127.785 76.4006 127.234 77.3153C126.688 78.2244 125.924 78.9403 124.941 79.4631C123.964 79.9801 122.827 80.2386 121.532 80.2386ZM134.043 77.6136L133.95 78.5511C133.876 79.3011 133.734 80.0483 133.523 80.7926C133.319 81.5426 133.103 82.2216 132.876 82.8295C132.654 83.4375 132.475 83.9148 132.339 84.2614H129.987C130.072 83.9261 130.188 83.4574 130.336 82.8551C130.484 82.2585 130.623 81.5881 130.754 80.8438C130.884 80.0994 130.967 79.3409 131.001 78.5682L131.043 77.6136H134.043ZM143.469 80.3835C142.004 80.3778 140.742 80.017 139.685 79.3011C138.634 78.5852 137.825 77.5483 137.256 76.1903C136.694 74.8324 136.415 73.1989 136.421 71.2898C136.421 69.3864 136.702 67.7642 137.265 66.4233C137.833 65.0824 138.643 64.0625 139.694 63.3636C140.751 62.6591 142.009 62.3068 143.469 62.3068C144.93 62.3068 146.185 62.6591 147.237 63.3636C148.293 64.0682 149.106 65.0909 149.674 66.4318C150.242 67.767 150.523 69.3864 150.518 71.2898C150.518 73.2045 150.234 74.8409 149.665 76.1989C149.103 77.5568 148.296 78.5937 147.245 79.3097C146.194 80.0256 144.935 80.3835 143.469 80.3835ZM143.469 77.3239C144.469 77.3239 145.268 76.821 145.864 75.8153C146.461 74.8097 146.756 73.3011 146.751 71.2898C146.751 69.9659 146.614 68.8636 146.342 67.983C146.075 67.1023 145.694 66.4403 145.2 65.9972C144.711 65.554 144.134 65.3324 143.469 65.3324C142.475 65.3324 141.68 65.8295 141.083 66.8239C140.487 67.8182 140.185 69.3068 140.18 71.2898C140.18 72.6307 140.313 73.75 140.58 74.6477C140.853 75.5398 141.237 76.2102 141.731 76.6591C142.225 77.1023 142.805 77.3239 143.469 77.3239ZM159.993 80.3835C158.527 80.3778 157.266 80.017 156.209 79.3011C155.158 78.5852 154.348 77.5483 153.78 76.1903C153.217 74.8324 152.939 73.1989 152.945 71.2898C152.945 69.3864 153.226 67.7642 153.788 66.4233C154.357 65.0824 155.166 64.0625 156.217 63.3636C157.274 62.6591 158.533 62.3068 159.993 62.3068C161.453 62.3068 162.709 62.6591 163.76 63.3636C164.817 64.0682 165.629 65.0909 166.197 66.4318C166.766 67.767 167.047 69.3864 167.041 71.2898C167.041 73.2045 166.757 74.8409 166.189 76.1989C165.626 77.5568 164.82 78.5937 163.768 79.3097C162.717 80.0256 161.459 80.3835 159.993 80.3835ZM159.993 77.3239C160.993 77.3239 161.791 76.821 162.388 75.8153C162.984 74.8097 163.28 73.3011 163.274 71.2898C163.274 69.9659 163.138 68.8636 162.865 67.983C162.598 67.1023 162.217 66.4403 161.723 65.9972C161.234 65.554 160.658 65.3324 159.993 65.3324C158.999 65.3324 158.203 65.8295 157.607 66.8239C157.01 67.8182 156.709 69.3068 156.703 71.2898C156.703 72.6307 156.837 73.75 157.104 74.6477C157.376 75.5398 157.76 76.2102 158.254 76.6591C158.749 77.1023 159.328 77.3239 159.993 77.3239ZM176.516 80.3835C175.05 80.3778 173.789 80.017 172.732 79.3011C171.681 78.5852 170.871 77.5483 170.303 76.1903C169.741 74.8324 169.462 73.1989 169.468 71.2898C169.468 69.3864 169.749 67.7642 170.312 66.4233C170.88 65.0824 171.69 64.0625 172.741 63.3636C173.798 62.6591 175.056 62.3068 176.516 62.3068C177.977 62.3068 179.232 62.6591 180.283 63.3636C181.34 64.0682 182.153 65.0909 182.721 66.4318C183.289 67.767 183.57 69.3864 183.565 71.2898C183.565 73.2045 183.281 74.8409 182.712 76.1989C182.15 77.5568 181.343 78.5937 180.292 79.3097C179.241 80.0256 177.982 80.3835 176.516 80.3835ZM176.516 77.3239C177.516 77.3239 178.315 76.821 178.911 75.8153C179.508 74.8097 179.803 73.3011 179.798 71.2898C179.798 69.9659 179.661 68.8636 179.388 67.983C179.121 67.1023 178.741 66.4403 178.246 65.9972C177.758 65.554 177.181 65.3324 176.516 65.3324C175.522 65.3324 174.727 65.8295 174.13 66.8239C173.533 67.8182 173.232 69.3068 173.227 71.2898C173.227 72.6307 173.36 73.75 173.627 74.6477C173.9 75.5398 174.283 76.2102 174.778 76.6591C175.272 77.1023 175.852 77.3239 176.516 77.3239Z" fill="#FBFBFB"/>
<path fill-rule="evenodd" clip-rule="evenodd" d="M51.5 56.5L49 59L56.5 66.5L69 54L66.5 51.5L56.5 61.5L51.5 56.5Z" fill="#54BE96"/>
</svg>
