<svg width="59" height="59" viewBox="0 0 59 59" fill="none" xmlns="http://www.w3.org/2000/svg">
<rect x="12.4681" width="48.1733" height="48.1733" rx="10" transform="rotate(15 12.4681 0)" fill="#FBC75E"/>
<g clip-path="url(#clip0_1_42)">
<path d="M31.8771 34.6007L31.4493 36.1973L20.2728 33.2026L20.7006 31.6059C20.7006 31.6059 21.5562 28.4126 27.1445 29.91C32.7328 31.4074 31.8771 34.6007 31.8771 34.6007ZM31.1151 26.2679C31.2632 25.7153 31.2441 25.1312 31.0602 24.5894C30.8763 24.0477 30.5359 23.5726 30.082 23.2243C29.6281 22.876 29.0811 22.6702 28.5102 22.6327C27.9393 22.5953 27.3701 22.728 26.8747 23.0141C26.3792 23.3002 25.9797 23.7267 25.7266 24.2398C25.4736 24.753 25.3784 25.3296 25.4531 25.8968C25.5277 26.464 25.7689 26.9964 26.1462 27.4265C26.5234 27.8567 27.0197 28.1653 27.5723 28.3134C28.3134 28.5119 29.1029 28.408 29.7674 28.0244C30.4318 27.6408 30.9166 27.009 31.1151 26.2679ZM32.6849 31.3945C33.0739 31.9058 33.3461 32.4962 33.4824 33.124C33.6187 33.7518 33.6157 34.4019 33.4738 35.0285L33.0459 36.6251L36.2392 37.4808L36.667 35.8841C36.667 35.8841 37.4435 32.9862 32.6849 31.3945ZM33.8596 24.0086C33.3109 23.8583 32.7295 23.8786 32.1927 24.0667C32.496 24.8742 32.5391 25.7564 32.3159 26.5897C32.0926 27.4229 31.6142 28.1653 30.9477 28.713C31.3185 29.1444 31.8119 29.4526 32.3623 29.5968C33.1033 29.7954 33.8929 29.6914 34.5573 29.3078C35.2217 28.9242 35.7065 28.2924 35.9051 27.5514C36.1036 26.8103 35.9997 26.0208 35.6161 25.3564C35.2325 24.6919 34.6007 24.2071 33.8596 24.0086Z" fill="#FBFBFB"/>
</g>
<defs>
<clipPath id="clip0_1_42">
<rect width="19.8356" height="19.8356" stroce="white" transform="translate(22.7404 17.6066) rotate(15)"/>
</clipPath>
</defs>
</svg>
