<svg width="26.000000" height="26.000000" viewBox="0 0 24.645 21.7512" fill="none" xmlns="http://www.w3.org/2000/svg" xmlns:xlink="http://www.w3.org/1999/xlink">
	<desc>
			Created with Pixso.
	</desc>
	<defs/>
	<path id="Vector" d="M21.89 2.74C21.34 2.19 20.68 1.75 19.96 1.45C19.24 1.15 18.46 1 17.68 1C16.9 1 16.12 1.15 15.4 1.45C14.68 1.75 14.02 2.19 13.47 2.74L12.32 3.89L11.17 2.74C10.05 1.62 8.54 1 6.95 1C5.37 1 3.86 1.62 2.74 2.74C1.62 3.86 1 5.37 1 6.96C1 8.54 1.62 10.05 2.74 11.17L3.89 12.32L12.32 20.75L20.75 12.32L21.89 11.17C22.45 10.62 22.89 9.96 23.19 9.24C23.49 8.51 23.64 7.74 23.64 6.96C23.64 6.17 23.49 5.4 23.19 4.67C22.89 3.95 22.45 3.29 21.89 2.74Z" fill="#54BE96" fill-opacity="1.000000" fill-rule="nonzero"/>
	<path id="Vector" d="M19.96 1.45C19.24 1.15 18.46 1 17.68 1C16.9 1 16.12 1.15 15.4 1.45C14.68 1.75 14.02 2.19 13.47 2.74L12.32 3.89L11.17 2.74C10.05 1.62 8.54 1 6.95 1C5.37 1 3.86 1.62 2.74 2.74C1.62 3.86 1 5.37 1 6.96C1 8.54 1.62 10.05 2.74 11.17L3.89 12.32L12.32 20.75L20.75 12.32L21.89 11.17C22.45 10.62 22.89 9.96 23.19 9.24C23.49 8.51 23.64 7.74 23.64 6.96C23.64 6.17 23.49 5.4 23.19 4.67C22.89 3.95 22.45 3.29 21.89 2.74C21.34 2.19 20.68 1.75 19.96 1.45Z" stroke="#54BE96" stroke-opacity="1.000000" stroke-width="2.000000" stroke-linejoin="round"/>
</svg>
