<svg width="16.000000" height="16.000000" viewBox="0 0 16 16" fill="none" xmlns="http://www.w3.org/2000/svg" xmlns:xlink="http://www.w3.org/1999/xlink">
	<desc>
			Created with Pixso.
	</desc>
	<defs/>
	<path id="Vector" d="M8 0C9.06 0 10.07 0.42 10.82 1.17C11.57 1.92 12 2.93 12 4C12 5.06 11.57 6.07 10.82 6.82C10.07 7.57 9.06 8 8 8C6.93 8 5.92 7.57 5.17 6.82C4.42 6.07 4 5.06 4 4C4 2.93 4.42 1.92 5.17 1.17C5.92 0.42 6.93 0 8 0ZM8 10C12.42 10 16 11.79 16 14L16 16L0 16L0 14C0 11.79 3.57 10 8 10Z" fill="#FBFBFB" fill-opacity="1.000000" fill-rule="nonzero"/>
</svg>
