<svg width="49" height="49" viewBox="0 0 49 49" fill="none" xmlns="http://www.w3.org/2000/svg">
<rect y="10.3528" width="40" height="40" rx="10" transform="rotate(-15 0 10.3528)" fill="#4535AF"/>
<path d="M21.5 21.3125C21.5 20.1404 22.3969 19.1875 23.5 19.1875H24.5C25.6031 19.1875 26.5 20.1404 26.5 21.3125V21.432C26.5 22.1559 26.1531 22.8299 25.5813 23.2184L24.2625 24.1182C23.8753 24.3827 23.5568 24.7463 23.3362 25.1756C23.1156 25.6048 23 26.0861 23 26.5752V26.625C23 27.2127 23.4469 27.6875 24 27.6875C24.5531 27.6875 25 27.2127 25 26.625V26.5785C25 26.3063 25.1312 26.0539 25.3438 25.9078L26.6625 25.008C27.8062 24.2244 28.5 22.8797 28.5 21.432V21.3125C28.5 18.965 26.7094 17.0625 24.5 17.0625H23.5C21.2906 17.0625 19.5 18.965 19.5 21.3125C19.5 21.9002 19.9469 22.375 20.5 22.375C21.0531 22.375 21.5 21.9002 21.5 21.3125ZM24 31.9375C24.3315 31.9375 24.6495 31.7976 24.8839 31.5485C25.1183 31.2994 25.25 30.9616 25.25 30.6094C25.25 30.2571 25.1183 29.9193 24.8839 29.6703C24.6495 29.4212 24.3315 29.2813 24 29.2813C23.6685 29.2813 23.3505 29.4212 23.1161 29.6703C22.8817 29.9193 22.75 30.2571 22.75 30.6094C22.75 30.9616 22.8817 31.2994 23.1161 31.5485C23.3505 31.7976 23.6685 31.9375 24 31.9375Z" fill="#FBFBFB"/>
</svg>
